<mxfile host="65bd71144e">
    <diagram id="VUlZrNLKj0H3eoXomR7d" name="Page-1">
        <mxGraphModel dx="1433" dy="946" grid="1" gridSize="10" guides="1" tooltips="1" connect="1" arrows="1" fold="1" page="1" pageScale="1" pageWidth="1100" pageHeight="850" math="0" shadow="0">
            <root>
                <mxCell id="0"/>
                <mxCell id="1" parent="0"/>
                <mxCell id="13" style="edgeStyle=none;html=1;exitX=0.5;exitY=1;exitDx=0;exitDy=0;endArrow=none;endFill=0;" parent="1" source="2" edge="1">
                    <mxGeometry relative="1" as="geometry">
                        <mxPoint x="332" y="406" as="targetPoint"/>
                    </mxGeometry>
                </mxCell>
                <mxCell id="2" value="&lt;b&gt;Spoke1&lt;/b&gt;&lt;br&gt;10.1.0.0/24&lt;br&gt;&lt;br&gt;&lt;b&gt;VM 10.1.0.4&lt;/b&gt;" style="whiteSpace=wrap;html=1;fillColor=#dae8fc;strokeColor=#6c8ebf;dashed=1;" parent="1" vertex="1">
                    <mxGeometry x="132" y="226" width="160" height="100" as="geometry"/>
                </mxCell>
                <mxCell id="3" value="" style="aspect=fixed;html=1;points=[];align=center;image;fontSize=12;image=img/lib/azure2/networking/Virtual_Networks.svg;dashed=1;" parent="1" vertex="1">
                    <mxGeometry x="272" y="226" width="16.75" height="10" as="geometry"/>
                </mxCell>
                <mxCell id="14" style="edgeStyle=none;html=1;exitX=0.5;exitY=1;exitDx=0;exitDy=0;entryX=0.769;entryY=0.313;entryDx=0;entryDy=0;entryPerimeter=0;endArrow=none;endFill=0;" parent="1" source="4" target="12" edge="1">
                    <mxGeometry relative="1" as="geometry"/>
                </mxCell>
                <mxCell id="4" value="&lt;b&gt;Spoke2&lt;/b&gt;&lt;br&gt;10.2.0.0/24&lt;br&gt;&lt;br&gt;&lt;b&gt;AZFW 10.2.0.68&lt;/b&gt;" style="whiteSpace=wrap;html=1;fillColor=#f8cecc;strokeColor=#b85450;dashed=1;" parent="1" vertex="1">
                    <mxGeometry x="372" y="226" width="160" height="100" as="geometry"/>
                </mxCell>
                <mxCell id="5" value="" style="aspect=fixed;html=1;points=[];align=center;image;fontSize=12;image=img/lib/azure2/networking/Virtual_Networks.svg;dashed=1;" parent="1" vertex="1">
                    <mxGeometry x="512" y="226" width="16.75" height="10" as="geometry"/>
                </mxCell>
                <mxCell id="10" style="edgeStyle=none;html=1;exitX=0.5;exitY=1;exitDx=0;exitDy=0;entryX=0.5;entryY=0;entryDx=0;entryDy=0;endArrow=none;endFill=0;" parent="1" source="6" target="4" edge="1">
                    <mxGeometry relative="1" as="geometry"/>
                </mxCell>
                <mxCell id="6" value="&lt;b&gt;Spoke5&lt;/b&gt;&lt;br&gt;10.5.0.0/24&lt;br&gt;&lt;br&gt;&lt;b&gt;VM 10.5.0.4&lt;/b&gt;" style="whiteSpace=wrap;html=1;fillColor=#dae8fc;strokeColor=#6c8ebf;dashed=1;" parent="1" vertex="1">
                    <mxGeometry x="248.75" y="86" width="160" height="100" as="geometry"/>
                </mxCell>
                <mxCell id="7" value="" style="aspect=fixed;html=1;points=[];align=center;image;fontSize=12;image=img/lib/azure2/networking/Virtual_Networks.svg;dashed=1;" parent="1" vertex="1">
                    <mxGeometry x="392" y="86" width="16.75" height="10" as="geometry"/>
                </mxCell>
                <mxCell id="11" style="edgeStyle=none;html=1;exitX=0.5;exitY=1;exitDx=0;exitDy=0;endArrow=none;endFill=0;" parent="1" source="8" edge="1">
                    <mxGeometry relative="1" as="geometry">
                        <mxPoint x="452" y="226" as="targetPoint"/>
                    </mxGeometry>
                </mxCell>
                <mxCell id="8" value="&lt;b&gt;Spoke6&lt;/b&gt;&lt;br&gt;10.6.0.0/24&lt;br&gt;&lt;br&gt;&lt;b&gt;VM 10.6.0.4&lt;/b&gt;" style="whiteSpace=wrap;html=1;fillColor=#dae8fc;strokeColor=#6c8ebf;dashed=1;" parent="1" vertex="1">
                    <mxGeometry x="469" y="86" width="160" height="100" as="geometry"/>
                </mxCell>
                <mxCell id="9" value="" style="aspect=fixed;html=1;points=[];align=center;image;fontSize=12;image=img/lib/azure2/networking/Virtual_Networks.svg;dashed=1;" parent="1" vertex="1">
                    <mxGeometry x="592" y="86" width="16.75" height="10" as="geometry"/>
                </mxCell>
                <mxCell id="16" style="edgeStyle=none;html=1;endArrow=none;endFill=0;strokeColor=#FF8000;entryX=0.5;entryY=0;entryDx=0;entryDy=0;strokeWidth=2;" parent="1" source="12" target="17" edge="1">
                    <mxGeometry relative="1" as="geometry">
                        <mxPoint x="355" y="556" as="targetPoint"/>
                    </mxGeometry>
                </mxCell>
                <mxCell id="18" value="IPSec + BGP" style="edgeLabel;html=1;align=center;verticalAlign=middle;resizable=0;points=[];fontStyle=1;fontColor=#FF8000;" parent="16" vertex="1" connectable="0">
                    <mxGeometry x="0.3666" y="-2" relative="1" as="geometry">
                        <mxPoint x="-38" y="4" as="offset"/>
                    </mxGeometry>
                </mxCell>
                <mxCell id="47" style="edgeStyle=none;html=1;strokeColor=#000000;fontColor=#FF8000;endArrow=none;endFill=0;dashed=1;" edge="1" parent="1" source="12" target="39">
                    <mxGeometry relative="1" as="geometry"/>
                </mxCell>
                <mxCell id="12" value="&lt;b style=&quot;font-size: 14px;&quot;&gt;Hub1&lt;br style=&quot;font-size: 14px;&quot;&gt;192.168.1.0/24&lt;/b&gt;" style="aspect=fixed;html=1;points=[];align=center;image;fontSize=14;image=img/lib/azure2/networking/Virtual_WANs.svg;" parent="1" vertex="1">
                    <mxGeometry x="322" y="396" width="79.22" height="78" as="geometry"/>
                </mxCell>
                <mxCell id="17" value="&lt;b&gt;Branch 1&lt;/b&gt;&lt;br&gt;10.100.0.0/16&lt;br&gt;&lt;br&gt;&lt;b&gt;VM 10.100.0.4&lt;/b&gt;" style="whiteSpace=wrap;html=1;fillColor=#eeeeee;strokeColor=#36393d;dashed=1;" parent="1" vertex="1">
                    <mxGeometry x="281.5" y="586" width="160" height="100" as="geometry"/>
                </mxCell>
                <mxCell id="19" value="spoke1conn" style="text;html=1;align=center;verticalAlign=middle;resizable=0;points=[];autosize=1;strokeColor=none;fillColor=none;rotation=33.1;" parent="1" vertex="1">
                    <mxGeometry x="232" y="366" width="90" height="30" as="geometry"/>
                </mxCell>
                <mxCell id="20" value="spoke2conn" style="text;html=1;align=center;verticalAlign=middle;resizable=0;points=[];autosize=1;strokeColor=none;fillColor=none;rotation=-52.7;fontColor=#6600CC;fontStyle=1" parent="1" vertex="1">
                    <mxGeometry x="379" y="366" width="90" height="30" as="geometry"/>
                </mxCell>
                <mxCell id="22" style="edgeStyle=none;html=1;entryX=1.02;entryY=0.343;entryDx=0;entryDy=0;entryPerimeter=0;strokeColor=#6600CC;fontColor=#6600CC;exitX=-0.019;exitY=0.5;exitDx=0;exitDy=0;exitPerimeter=0;" edge="1" parent="1" source="21" target="20">
                    <mxGeometry relative="1" as="geometry"/>
                </mxCell>
                <mxCell id="21" value="Static Route:&lt;br&gt;10.2.0.0/16 Next Hop 10.2.0.68" style="text;html=1;align=left;verticalAlign=middle;resizable=0;points=[];autosize=1;strokeColor=none;fillColor=none;fontColor=#6600CC;fontStyle=1" vertex="1" parent="1">
                    <mxGeometry x="472" y="329" width="190" height="40" as="geometry"/>
                </mxCell>
                <mxCell id="24" style="edgeStyle=none;html=1;entryX=-0.006;entryY=0.306;entryDx=0;entryDy=0;entryPerimeter=0;strokeColor=#6600CC;fontColor=#6600CC;exitX=1.014;exitY=0.507;exitDx=0;exitDy=0;exitPerimeter=0;" edge="1" parent="1" source="23" target="12">
                    <mxGeometry relative="1" as="geometry"/>
                </mxCell>
                <mxCell id="23" value="&lt;div style=&quot;text-align: left;&quot;&gt;&lt;span style=&quot;background-color: initial;&quot;&gt;Default route table static routes:&lt;/span&gt;&lt;/div&gt;&lt;div style=&quot;text-align: left;&quot;&gt;&lt;span style=&quot;background-color: initial;&quot;&gt;to-Spoke2-AzFW - 10.2.0.0/16 - spoke2conn&lt;/span&gt;&lt;/div&gt;&lt;div style=&quot;text-align: left;&quot;&gt;&lt;span style=&quot;background-color: initial;&quot;&gt;to-Spoke4-AzFW - 10.4.0.0/16 - spoke4conn&lt;/span&gt;&lt;/div&gt;" style="text;html=1;align=center;verticalAlign=middle;resizable=0;points=[];autosize=1;strokeColor=none;fillColor=none;fontColor=#6600CC;fontStyle=1" vertex="1" parent="1">
                    <mxGeometry x="17.650000000000006" y="390" width="270" height="60" as="geometry"/>
                </mxCell>
                <mxCell id="25" style="edgeStyle=none;html=1;exitX=0.5;exitY=1;exitDx=0;exitDy=0;endArrow=none;endFill=0;" edge="1" parent="1" source="26">
                    <mxGeometry relative="1" as="geometry">
                        <mxPoint x="888.75" y="406" as="targetPoint"/>
                    </mxGeometry>
                </mxCell>
                <mxCell id="26" value="&lt;b&gt;Spoke3&lt;/b&gt;&lt;br&gt;10.3.0.0/24&lt;br&gt;&lt;br&gt;&lt;b&gt;VM 10.3.0.4&lt;/b&gt;" style="whiteSpace=wrap;html=1;fillColor=#dae8fc;strokeColor=#6c8ebf;dashed=1;" vertex="1" parent="1">
                    <mxGeometry x="688.75" y="226" width="160" height="100" as="geometry"/>
                </mxCell>
                <mxCell id="27" value="" style="aspect=fixed;html=1;points=[];align=center;image;fontSize=12;image=img/lib/azure2/networking/Virtual_Networks.svg;dashed=1;" vertex="1" parent="1">
                    <mxGeometry x="828.75" y="226" width="16.75" height="10" as="geometry"/>
                </mxCell>
                <mxCell id="28" style="edgeStyle=none;html=1;exitX=0.5;exitY=1;exitDx=0;exitDy=0;entryX=0.769;entryY=0.313;entryDx=0;entryDy=0;entryPerimeter=0;endArrow=none;endFill=0;" edge="1" parent="1" source="29" target="39">
                    <mxGeometry relative="1" as="geometry"/>
                </mxCell>
                <mxCell id="29" value="Spoke4&lt;br&gt;10.4.0.0/24&lt;br&gt;&lt;br&gt;&lt;b&gt;AZFW 10.4.0.68&lt;/b&gt;" style="whiteSpace=wrap;html=1;fillColor=#f8cecc;strokeColor=#b85450;dashed=1;" vertex="1" parent="1">
                    <mxGeometry x="928.75" y="226" width="160" height="100" as="geometry"/>
                </mxCell>
                <mxCell id="30" value="" style="aspect=fixed;html=1;points=[];align=center;image;fontSize=12;image=img/lib/azure2/networking/Virtual_Networks.svg;dashed=1;" vertex="1" parent="1">
                    <mxGeometry x="1068.75" y="226" width="16.75" height="10" as="geometry"/>
                </mxCell>
                <mxCell id="31" style="edgeStyle=none;html=1;exitX=0.5;exitY=1;exitDx=0;exitDy=0;entryX=0.5;entryY=0;entryDx=0;entryDy=0;endArrow=none;endFill=0;" edge="1" parent="1" source="32" target="29">
                    <mxGeometry relative="1" as="geometry"/>
                </mxCell>
                <mxCell id="32" value="&lt;b&gt;Spoke7&lt;/b&gt;&lt;br&gt;10.7.0.0/24&lt;br&gt;&lt;br&gt;&lt;b&gt;VM 10.7.0.4&lt;/b&gt;" style="whiteSpace=wrap;html=1;fillColor=#dae8fc;strokeColor=#6c8ebf;dashed=1;" vertex="1" parent="1">
                    <mxGeometry x="808.75" y="86" width="160" height="100" as="geometry"/>
                </mxCell>
                <mxCell id="33" value="" style="aspect=fixed;html=1;points=[];align=center;image;fontSize=12;image=img/lib/azure2/networking/Virtual_Networks.svg;dashed=1;" vertex="1" parent="1">
                    <mxGeometry x="948.75" y="86" width="16.75" height="10" as="geometry"/>
                </mxCell>
                <mxCell id="34" style="edgeStyle=none;html=1;exitX=0.5;exitY=1;exitDx=0;exitDy=0;endArrow=none;endFill=0;" edge="1" parent="1" source="35">
                    <mxGeometry relative="1" as="geometry">
                        <mxPoint x="1008.75" y="226" as="targetPoint"/>
                    </mxGeometry>
                </mxCell>
                <mxCell id="35" value="&lt;b&gt;Spoke8&lt;/b&gt;&lt;br&gt;10.8.0.0/24&lt;br&gt;&lt;br&gt;&lt;b&gt;VM 10.8.0.4&lt;/b&gt;" style="whiteSpace=wrap;html=1;fillColor=#dae8fc;strokeColor=#6c8ebf;dashed=1;" vertex="1" parent="1">
                    <mxGeometry x="1023.75" y="86" width="160" height="100" as="geometry"/>
                </mxCell>
                <mxCell id="36" value="" style="aspect=fixed;html=1;points=[];align=center;image;fontSize=12;image=img/lib/azure2/networking/Virtual_Networks.svg;dashed=1;" vertex="1" parent="1">
                    <mxGeometry x="1148.75" y="86" width="16.75" height="10" as="geometry"/>
                </mxCell>
                <mxCell id="37" style="edgeStyle=none;html=1;endArrow=none;endFill=0;strokeColor=#FF8000;entryX=0.5;entryY=0;entryDx=0;entryDy=0;strokeWidth=2;" edge="1" parent="1" source="39" target="40">
                    <mxGeometry relative="1" as="geometry">
                        <mxPoint x="911.75" y="556" as="targetPoint"/>
                    </mxGeometry>
                </mxCell>
                <mxCell id="38" value="IPSec + BGP" style="edgeLabel;html=1;align=center;verticalAlign=middle;resizable=0;points=[];fontStyle=1;fontColor=#FF8000;" vertex="1" connectable="0" parent="37">
                    <mxGeometry x="0.3666" y="-2" relative="1" as="geometry">
                        <mxPoint x="-38" y="4" as="offset"/>
                    </mxGeometry>
                </mxCell>
                <mxCell id="39" value="&lt;b style=&quot;font-size: 14px;&quot;&gt;Hub2&lt;br style=&quot;font-size: 14px;&quot;&gt;192.168.2.0/24&lt;/b&gt;" style="aspect=fixed;html=1;points=[];align=center;image;fontSize=14;image=img/lib/azure2/networking/Virtual_WANs.svg;" vertex="1" parent="1">
                    <mxGeometry x="878.75" y="396" width="79.22" height="78" as="geometry"/>
                </mxCell>
                <mxCell id="40" value="&lt;b&gt;Branch 2&lt;/b&gt;&lt;br&gt;10.100.0.0/16&lt;br&gt;&lt;br&gt;&lt;b&gt;VM 10.200.0.4&lt;/b&gt;" style="whiteSpace=wrap;html=1;fillColor=#eeeeee;strokeColor=#36393d;dashed=1;" vertex="1" parent="1">
                    <mxGeometry x="838.25" y="586" width="160" height="100" as="geometry"/>
                </mxCell>
                <mxCell id="41" value="spoke3conn" style="text;html=1;align=center;verticalAlign=middle;resizable=0;points=[];autosize=1;strokeColor=none;fillColor=none;rotation=33.1;" vertex="1" parent="1">
                    <mxGeometry x="788.75" y="366" width="90" height="30" as="geometry"/>
                </mxCell>
                <mxCell id="42" value="spoke4conn" style="text;html=1;align=center;verticalAlign=middle;resizable=0;points=[];autosize=1;strokeColor=none;fillColor=none;rotation=-52.7;fontColor=#6600CC;fontStyle=1" vertex="1" parent="1">
                    <mxGeometry x="935.75" y="366" width="90" height="30" as="geometry"/>
                </mxCell>
                <mxCell id="43" style="edgeStyle=none;html=1;entryX=1.02;entryY=0.343;entryDx=0;entryDy=0;entryPerimeter=0;strokeColor=#6600CC;fontColor=#6600CC;exitX=-0.019;exitY=0.5;exitDx=0;exitDy=0;exitPerimeter=0;" edge="1" parent="1" source="44" target="42">
                    <mxGeometry relative="1" as="geometry"/>
                </mxCell>
                <mxCell id="44" value="Static Route:&lt;br&gt;10.4.0.0/16 Next Hop 10.4.0.68" style="text;html=1;align=left;verticalAlign=middle;resizable=0;points=[];autosize=1;strokeColor=none;fillColor=none;fontColor=#6600CC;fontStyle=1" vertex="1" parent="1">
                    <mxGeometry x="1028.75" y="329" width="190" height="40" as="geometry"/>
                </mxCell>
                <mxCell id="45" style="edgeStyle=none;html=1;strokeColor=#6600CC;fontColor=#6600CC;exitX=0.002;exitY=0.5;exitDx=0;exitDy=0;exitPerimeter=0;" edge="1" parent="1" source="46">
                    <mxGeometry relative="1" as="geometry">
                        <mxPoint x="956" y="424" as="targetPoint"/>
                    </mxGeometry>
                </mxCell>
                <mxCell id="46" value="&lt;div style=&quot;text-align: left;&quot;&gt;&lt;span style=&quot;background-color: initial;&quot;&gt;Default route table static routes:&lt;/span&gt;&lt;/div&gt;&lt;div style=&quot;text-align: left;&quot;&gt;&lt;span style=&quot;background-color: initial;&quot;&gt;to-Spoke2-AzFW - 10.2.0.0/16 - spoke2conn&lt;/span&gt;&lt;/div&gt;&lt;div style=&quot;text-align: left;&quot;&gt;&lt;span style=&quot;background-color: initial;&quot;&gt;to-Spoke4-AzFW - 10.4.0.0/16 - spoke4conn&lt;/span&gt;&lt;/div&gt;" style="text;html=1;align=center;verticalAlign=middle;resizable=0;points=[];autosize=1;strokeColor=none;fillColor=none;fontColor=#6600CC;fontStyle=1" vertex="1" parent="1">
                    <mxGeometry x="989.1" y="394" width="270" height="60" as="geometry"/>
                </mxCell>
                <mxCell id="48" value="Inter-Hub" style="text;html=1;align=center;verticalAlign=middle;resizable=0;points=[];autosize=1;strokeColor=none;fillColor=none;fontColor=#000000;" vertex="1" parent="1">
                    <mxGeometry x="592" y="444" width="70" height="30" as="geometry"/>
                </mxCell>
                <mxCell id="51" value="&lt;span style=&quot;color: rgb(0, 0, 0); font-size: 10px; background-color: rgb(251, 251, 251);&quot;&gt;UDR - 0.0,0,0/0 Next Hop AZFW (10.2.0.68)&lt;/span&gt;" style="aspect=fixed;html=1;points=[];align=left;image;fontSize=10;image=img/lib/azure2/networking/Route_Tables.svg;fontColor=#FF8000;fontStyle=1" vertex="1" parent="1">
                    <mxGeometry x="232" y="44" width="20.65" height="20" as="geometry"/>
                </mxCell>
                <mxCell id="54" value="&lt;span style=&quot;color: rgb(0, 0, 0); font-size: 10px; background-color: rgb(251, 251, 251);&quot;&gt;UDR - 0.0,0,0/0 Next Hop AZFW (10.2.0.68)&lt;/span&gt;" style="aspect=fixed;html=1;points=[];align=left;image;fontSize=10;image=img/lib/azure2/networking/Route_Tables.svg;fontColor=#FF8000;fontStyle=1" vertex="1" parent="1">
                    <mxGeometry x="448.35" y="44" width="20.65" height="20" as="geometry"/>
                </mxCell>
                <mxCell id="55" value="&lt;span style=&quot;color: rgb(0, 0, 0); font-size: 10px; background-color: rgb(251, 251, 251);&quot;&gt;UDR - 0.0,0,0/0 Next Hop AZFW (10.4.0.68)&lt;/span&gt;" style="aspect=fixed;html=1;points=[];align=left;image;fontSize=10;image=img/lib/azure2/networking/Route_Tables.svg;fontColor=#FF8000;fontStyle=1" vertex="1" parent="1">
                    <mxGeometry x="788.1" y="44" width="20.65" height="20" as="geometry"/>
                </mxCell>
                <mxCell id="56" value="&lt;span style=&quot;color: rgb(0, 0, 0); font-size: 10px; background-color: rgb(251, 251, 251);&quot;&gt;UDR - 0.0,0,0/0 Next Hop AZFW (10.4.0.68)&lt;/span&gt;" style="aspect=fixed;html=1;points=[];align=left;image;fontSize=10;image=img/lib/azure2/networking/Route_Tables.svg;fontColor=#FF8000;fontStyle=1" vertex="1" parent="1">
                    <mxGeometry x="1008.1" y="44" width="20.65" height="20" as="geometry"/>
                </mxCell>
            </root>
        </mxGraphModel>
    </diagram>
</mxfile>